<svg width="1503" height="818" viewBox="0 0 1503 818" fill="none" xmlns="http://www.w3.org/2000/svg">
<path d="M1499 792.48C1400.5 776.479 978 665.479 811.5 525.479C645 385.48 523.5 180.478 561.5 100.978C599.5 21.4785 725 -20.0254 786 100.974C968 38.4746 1052.5 141.475 947.5 288.475C842.5 435.475 742.5 452.979 632.5 496.483C522.5 539.986 58.8333 713.48 13 686.48" stroke="#62A744" stroke-width="50"/>
<path d="M1499 792.48C1400.5 776.479 978 665.479 811.5 525.479C645 385.48 523.5 180.478 561.5 100.978C599.5 21.4785 725 -20.0254 786 100.974C968 38.4746 1052.5 141.475 947.5 288.475C842.5 435.475 742.5 452.979 632.5 496.483C522.5 539.986 58.8333 713.48 13 686.48" stroke="white" stroke-opacity="0.2" stroke-width="50"/>
</svg>
